# xmcd
#
# Track frame offsets:
# 225
# 18315
# 46140
# 63988
# 83122
# 99984
# 117014
# 133455
# 149536
# 168695
# 180391
# 193496
# 211299
# 228643
# 240877
# 255276
#
# Disc length: 3564 seconds
#
#
# Revision: 0
# Processed by: cddbd v1.5.2PL0 Copyright (c) Steve Scherf et al.
# Submitted via: FreeRIP 2.944 
#
DISCID=dc0de910
DTITLE=Dionne Warwick - Dionne Warwick
DYEAR=2000
DGENRE=Soul
TTITLE0=The Need to Be
TTITLE1=Seeing You Again
TTITLE2=In Between Heartaches
TTITLE3=You're the Best thing that ever Happened to Me
TTITLE4=You Are a Song
TTITLE5=Don't Say I Didn't Tell You
TTITLE6=Loving You is Just an Old Habbit
TTITLE7=I Always get caught in the Rain
TTITLE8=I'm Just Being Myself
TTITLE9=Make the  music Play
TTITLE10=I Say a Little Prayer
TTITLE11=You Are the Heart of Me
TTITLE12=Don't Let My Teardrops Bother you
TTITLE13=Walk on By
TTITLE14=Don't Make Me Over
TTITLE15=I'll Never Fall in Love Again
EXTD=
EXTT0=
EXTT1=
EXTT2=
EXTT3=
EXTT4=
EXTT5=
EXTT6=
EXTT7=
EXTT8=
EXTT9=
EXTT10=
EXTT11=
EXTT12=
EXTT13=
EXTT14=
EXTT15=
PLAYORDER=
